<svg width="100" height="100" viewBox="0 0 100 100" xmlns="http://www.w3.org/2000/svg" fill="none"><defs><clipPath><path fill="#fff" d="M0 0h71v55h-71z"/></clipPath></defs><path d="M49.523 0a50 50 0 0 0-50 50 50 50 0 0 0 50 50 50 50 0 0 0 50-50 50 50 0 0 0-50-50zm-9.693 22.945c.092-.014.185.028.232.109.627 1.11 1.342 2.534 1.826 3.697 5.345-.817 10.775-.817 16.232 0 .484-1.138 1.175-2.587 1.799-3.697.048-.085.14-.126.232-.109 5.074.876 9.928 2.406 14.453 4.482l.092.084c8.018 11.793 11.976 25.097 10.496 40.412-.006.065-.039.125-.092.164-6.073 4.46-11.954 7.166-17.756 8.961-.092.028-.194-.005-.25-.084-1.341-1.865-2.557-3.831-3.623-5.896-.062-.121-.007-.269.119-.316 1.934-.73 3.772-1.603 5.541-2.637.14-.082.148-.281.02-.377-.375-.279-.746-.572-1.102-.865-.067-.053-.157-.066-.232-.029-11.483 5.305-24.062 5.305-35.682 0-.076-.034-.166-.022-.23.031-.355.293-.727.584-1.1.863-.129.096-.116.295.023.377 1.769 1.014 3.606 1.908 5.537 2.641.126.048.185.191.123.313-1.044 2.068-2.261 4.033-3.627 5.898-.059.076-.156.11-.248.082-5.773-1.795-11.656-4.501-17.729-8.961-.05-.039-.088-.103-.094-.168-1.237-13.247 1.286-26.659 10.49-40.41l.094-.082c4.528-2.079 9.382-3.609 14.453-4.482zm-1.604 22.598c-3.554 0-6.381 3.212-6.381 7.156 0 3.944 2.883 7.156 6.381 7.156 3.554 0 6.381-3.212 6.381-7.156.056-3.916-2.799-7.156-6.381-7.156zm23.592 0c-3.554 0-6.381 3.212-6.381 7.156 0 3.944 2.883 7.156 6.381 7.156 3.582 0 6.381-3.212 6.381-7.156.056-3.916-2.799-7.156-6.381-7.156z" fill="#fff"/></svg>